<svg xmlns="http://www.w3.org/2000/svg" width="600" height="400" viewBox="0 0 600 400">
  <rect width="600" height="400" fill="#f5f5f5"/>
  <rect x="100" y="100" width="400" height="200" rx="20" fill="#e0e0e0"/>
  <g transform="translate(150, 120)">
    <circle cx="50" cy="50" r="40" fill="#0056b3"/>
    <circle cx="150" cy="50" r="40" fill="#0056b3"/>
    <circle cx="250" cy="50" r="40" fill="#0056b3"/>
    <path d="M50,40 C50,30 70,30 70,40" stroke="#ffffff" stroke-width="2" fill="none"/>
    <path d="M150,40 C150,30 170,30 170,40" stroke="#ffffff" stroke-width="2" fill="none"/>
    <path d="M250,40 C250,30 270,30 270,40" stroke="#ffffff" stroke-width="2" fill="none"/>
    <circle cx="40" cy="35" r="3" fill="#ffffff"/>
    <circle cx="60" cy="35" r="3" fill="#ffffff"/>
    <circle cx="140" cy="35" r="3" fill="#ffffff"/>
    <circle cx="160" cy="35" r="3" fill="#ffffff"/>
    <circle cx="240" cy="35" r="3" fill="#ffffff"/>
    <circle cx="260" cy="35" r="3" fill="#ffffff"/>
    <path d="M30,60 L70,60" stroke="#ffffff" stroke-width="2" fill="none"/>
    <path d="M130,60 L170,60" stroke="#ffffff" stroke-width="2" fill="none"/>
    <path d="M230,60 L270,60" stroke="#ffffff" stroke-width="2" fill="none"/>
    <rect x="20" y="120" width="260" height="30" rx="5" fill="#ff6b00"/>
    <rect x="20" y="160" width="200" height="10" rx="5" fill="#333333"/>
  </g>
  <text x="300" y="350" font-family="Arial" font-size="16" text-anchor="middle" fill="#333333">Our Team</text>
</svg>