<svg xmlns="http://www.w3.org/2000/svg" viewBox="0 0 512 512" fill="#ffffff">
  <path d="M128 352c0 17.7-14.3 32-32 32s-32-14.3-32-32 14.3-32 32-32 32 14.3 32 32zm96-32c-17.7 0-32 14.3-32 32s14.3 32 32 32 32-14.3 32-32-14.3-32-32-32zm-192-32h384c17.7 0 32-14.3 32-32V96c0-17.7-14.3-32-32-32H32C14.3 64 0 78.3 0 96v160c0 17.7 14.3 32 32 32zm352-160c0-8.8 7.2-16 16-16s16 7.2 16 16v128c0 8.8-7.2 16-16 16s-16-7.2-16-16V128zM82.4 224c4.2 0 8.2-1.6 11.2-4.6l45.3-45.3c6.2-6.2 6.2-16.4 0-22.6s-16.4-6.2-22.6 0l-45.3 45.3c-6.2 6.2-6.2 16.4 0 22.6 3 3 7 4.6 11.2 4.6zm361.3-45.3l-45.3-45.3c-6.2-6.2-16.4-6.2-22.6 0s-6.2 16.4 0 22.6l45.3 45.3c3 3 7 4.6 11.2 4.6s8.2-1.6 11.2-4.6c6.3-6.2 6.3-16.4 0-22.6zM256 240c26.5 0 48-21.5 48-48s-21.5-48-48-48-48 21.5-48 48 21.5 48 48 48z"/>
</svg>