<svg xmlns="http://www.w3.org/2000/svg" viewBox="0 0 512 512" fill="#0056b3">
  <path d="M256 64C114.6 64 0 178.6 0 320s114.6 256 256 256 256-114.6 256-256S397.4 64 256 64zm0 448c-106 0-192-86-192-192S150 128 256 128s192 86 192 192-86 192-192 192zm32-276c0 17.7-14.3 32-32 32s-32-14.3-32-32 14.3-32 32-32 32 14.3 32 32zm-32 88c-13.2 0-24 10.8-24 24v80c0 13.2 10.8 24 24 24s24-10.8 24-24v-80c0-13.2-10.8-24-24-24z"/>
  <path d="M256 272c-13.2 0-24 10.8-24 24v80c0 13.2 10.8 24 24 24s24-10.8 24-24v-80c0-13.2-10.8-24-24-24zm0-128c-17.7 0-32 14.3-32 32s14.3 32 32 32 32-14.3 32-32-14.3-32-32-32z"/>
</svg>