<svg xmlns="http://www.w3.org/2000/svg" width="600" height="400" viewBox="0 0 600 400">
  <rect width="600" height="400" fill="#34495e"/>
  <g fill="#ffffff" fill-opacity="0.1">
    <circle cx="150" cy="200" r="70"/>
    <circle cx="450" cy="200" r="70"/>
    <rect x="100" y="100" width="400" height="200" rx="10"/>
  </g>
  <g transform="translate(200, 100)">
    <rect x="0" y="0" width="200" height="200" rx="5" fill="#7f8c8d" fill-opacity="0.8"/>
    <rect x="10" y="10" width="180" height="180" rx="0" fill="#95a5a6" fill-opacity="0.5"/>
    <!-- Damaged parts -->
    <path d="M0,0 L50,50 M50,0 L0,50" stroke="#c0392b" stroke-width="5" stroke-linecap="round"/>
    <path d="M150,0 L200,50 M200,0 L150,50" stroke="#c0392b" stroke-width="5" stroke-linecap="round"/>
    <path d="M0,150 L50,200 M50,200 L0,150" stroke="#c0392b" stroke-width="5" stroke-linecap="round"/>
    <path d="M150,150 L200,200 M200,150 L150,200" stroke="#c0392b" stroke-width="5" stroke-linecap="round"/>
    <!-- Rust and damage effects -->
    <circle cx="100" cy="100" r="60" fill="#e67e22" fill-opacity="0.3"/>
    <circle cx="100" cy="100" r="40" fill="#d35400" fill-opacity="0.4"/>
    <path d="M60,60 L140,140 M140,60 L60,140" stroke="#c0392b" stroke-width="3" stroke-linecap="round"/>
    <!-- Bent fins -->
    <path d="M20,20 C30,40 10,60 20,80 C30,100 10,120 20,140 C30,160 10,180 20,180" stroke="#bdc3c7" stroke-width="2" stroke-linecap="round"/>
    <path d="M40,20 C50,40 30,60 40,80 C50,100 30,120 40,140 C50,160 30,180 40,180" stroke="#bdc3c7" stroke-width="2" stroke-linecap="round"/>
    <path d="M60,20 C70,40 50,60 60,80 C70,100 50,120 60,140 C70,160 50,180 60,180" stroke="#bdc3c7" stroke-width="2" stroke-linecap="round"/>
    <!-- Debris -->
    <circle cx="30" cy="30" r="5" fill="#8e44ad" fill-opacity="0.6"/>
    <circle cx="170" cy="30" r="5" fill="#8e44ad" fill-opacity="0.6"/>
    <circle cx="30" cy="170" r="5" fill="#8e44ad" fill-opacity="0.6"/>
    <circle cx="170" cy="170" r="5" fill="#8e44ad" fill-opacity="0.6"/>
  </g>
  <text x="300" y="375" font-family="Arial" font-size="24" text-anchor="middle" fill="#ffffff">Damaged AC Condenser Unit</text>
</svg>