<svg xmlns="http://www.w3.org/2000/svg" width="600" height="400" viewBox="0 0 600 400">
  <rect width="600" height="400" fill="#2c3e50"/>
  <g fill="#ffffff" fill-opacity="0.1">
    <circle cx="200" cy="150" r="60"/>
    <circle cx="400" cy="250" r="80"/>
    <rect x="150" y="100" width="300" height="200" rx="15"/>
  </g>
  <g transform="translate(150, 75)">
    <rect x="0" y="0" width="300" height="250" rx="5" fill="#95a5a6" fill-opacity="0.8"/>
    <rect x="10" y="10" width="280" height="230" rx="0" fill="#7f8c8d" fill-opacity="0.5"/>
    <rect x="120" y="0" width="60" height="250" rx="0" fill="#34495e" fill-opacity="0.7"/>
    <rect x="130" y="10" width="40" height="230" rx="0" fill="#2c3e50" fill-opacity="0.8"/>
    <circle cx="150" cy="125" r="15" fill="#e74c3c"/>
    <rect x="135" y="150" width="30" height="30" rx="2" fill="#3498db" fill-opacity="0.6"/>
    <path d="M20,40 L100,40 M20,80 L100,80 M20,120 L100,120 M20,160 L100,160 M20,200 L100,200" stroke="#ecf0f1" stroke-width="3" stroke-linecap="round"/>
    <path d="M200,40 L280,40 M200,80 L280,80 M200,120 L280,120 M200,160 L280,160 M200,200 L280,200" stroke="#ecf0f1" stroke-width="3" stroke-linecap="round"/>
  </g>
  <text x="300" y="375" font-family="Arial" font-size="24" text-anchor="middle" fill="#ffffff">Walk-in Cooler</text>
</svg>