<svg xmlns="http://www.w3.org/2000/svg" width="600" height="400" viewBox="0 0 600 400">
  <rect width="600" height="400" fill="#f5f5f5"/>
  <g transform="translate(50, 50)">
    <rect x="0" y="0" width="150" height="120" rx="10" fill="#0056b3"/>
    <rect x="170" y="0" width="150" height="120" rx="10" fill="#0056b3"/>
    <rect x="340" y="0" width="150" height="120" rx="10" fill="#0056b3"/>
    <rect x="0" y="140" width="150" height="120" rx="10" fill="#0056b3"/>
    <rect x="170" y="140" width="150" height="120" rx="10" fill="#0056b3"/>
    <rect x="340" y="140" width="150" height="120" rx="10" fill="#0056b3"/>
    
    <!-- Image icons -->
    <g transform="translate(60, 50)">
      <rect x="-20" y="-15" width="40" height="30" rx="5" fill="#ffffff" fill-opacity="0.3"/>
      <circle cx="0" cy="-5" r="5" fill="#ffffff"/>
      <path d="M-15,10 L15,10 L5,-5 L-5,5 L-15,10 Z" fill="#ffffff"/>
    </g>
    
    <g transform="translate(230, 50)">
      <rect x="-20" y="-15" width="40" height="30" rx="5" fill="#ffffff" fill-opacity="0.3"/>
      <circle cx="0" cy="-5" r="5" fill="#ffffff"/>
      <path d="M-15,10 L15,10 L5,-5 L-5,5 L-15,10 Z" fill="#ffffff"/>
    </g>
    
    <g transform="translate(400, 50)">
      <rect x="-20" y="-15" width="40" height="30" rx="5" fill="#ffffff" fill-opacity="0.3"/>
      <circle cx="0" cy="-5" r="5" fill="#ffffff"/>
      <path d="M-15,10 L15,10 L5,-5 L-5,5 L-15,10 Z" fill="#ffffff"/>
    </g>
    
    <g transform="translate(60, 190)">
      <rect x="-20" y="-15" width="40" height="30" rx="5" fill="#ffffff" fill-opacity="0.3"/>
      <circle cx="0" cy="-5" r="5" fill="#ffffff"/>
      <path d="M-15,10 L15,10 L5,-5 L-5,5 L-15,10 Z" fill="#ffffff"/>
    </g>
    
    <g transform="translate(230, 190)">
      <rect x="-20" y="-15" width="40" height="30" rx="5" fill="#ffffff" fill-opacity="0.3"/>
      <circle cx="0" cy="-5" r="5" fill="#ffffff"/>
      <path d="M-15,10 L15,10 L5,-5 L-5,5 L-15,10 Z" fill="#ffffff"/>
    </g>
    
    <g transform="translate(400, 190)">
      <rect x="-20" y="-15" width="40" height="30" rx="5" fill="#ffffff" fill-opacity="0.3"/>
      <circle cx="0" cy="-5" r="5" fill="#ffffff"/>
      <path d="M-15,10 L15,10 L5,-5 L-5,5 L-15,10 Z" fill="#ffffff"/>
    </g>
  </g>
  <text x="300" y="350" font-family="Arial" font-size="16" text-anchor="middle" fill="#333333">Gallery</text>
</svg>