<svg xmlns="http://www.w3.org/2000/svg" width="600" height="400" viewBox="0 0 600 400">
  <rect width="600" height="400" fill="#2c3e50"/>
  <g fill="#ffffff" fill-opacity="0.1">
    <circle cx="200" cy="150" r="60"/>
    <circle cx="400" cy="250" r="80"/>
    <rect x="150" y="100" width="300" height="200" rx="15"/>
  </g>
  <g transform="translate(150, 75)">
    <rect x="0" y="0" width="300" height="250" rx="5" fill="#34495e" fill-opacity="0.8"/>
    <rect x="20" y="20" width="260" height="100" rx="0" fill="#7f8c8d" fill-opacity="0.5"/>
    <rect x="20" y="130" width="260" height="100" rx="0" fill="#7f8c8d" fill-opacity="0.5"/>
    <rect x="30" y="30" width="240" height="80" rx="0" fill="#95a5a6" fill-opacity="0.7"/>
    <rect x="30" y="140" width="240" height="80" rx="0" fill="#95a5a6" fill-opacity="0.7"/>
    <circle cx="60" cy="70" r="15" fill="#e74c3c"/>
    <circle cx="100" cy="70" r="15" fill="#e74c3c"/>
    <circle cx="140" cy="70" r="15" fill="#e74c3c"/>
    <circle cx="180" cy="70" r="15" fill="#e74c3c"/>
    <circle cx="60" cy="180" r="15" fill="#e74c3c"/>
    <circle cx="100" cy="180" r="15" fill="#e74c3c"/>
    <circle cx="140" cy="180" r="15" fill="#e74c3c"/>
    <circle cx="180" cy="180" r="15" fill="#e74c3c"/>
    <rect x="220" y="30" width="50" height="80" rx="0" fill="#3498db" fill-opacity="0.6"/>
    <rect x="220" y="140" width="50" height="80" rx="0" fill="#3498db" fill-opacity="0.6"/>
    <rect x="230" y="40" width="30" height="20" rx="2" fill="#2980b9" fill-opacity="0.8"/>
    <rect x="230" y="70" width="30" height="30" rx="2" fill="#2980b9" fill-opacity="0.8"/>
    <rect x="230" y="150" width="30" height="20" rx="2" fill="#2980b9" fill-opacity="0.8"/>
    <rect x="230" y="180" width="30" height="30" rx="2" fill="#2980b9" fill-opacity="0.8"/>
  </g>
  <text x="300" y="375" font-family="Arial" font-size="24" text-anchor="middle" fill="#ffffff">Double Wall Oven</text>
</svg>