<svg xmlns="http://www.w3.org/2000/svg" width="600" height="400" viewBox="0 0 600 400">
  <rect width="600" height="400" fill="#34495e"/>
  <g fill="#ffffff" fill-opacity="0.1">
    <circle cx="150" cy="200" r="70"/>
    <circle cx="450" cy="200" r="70"/>
    <rect x="100" y="100" width="400" height="200" rx="10"/>
  </g>
  <g transform="translate(150, 100)">
    <rect x="0" y="0" width="300" height="200" rx="5" fill="#2c3e50" fill-opacity="0.8"/>
    <rect x="20" y="20" width="260" height="160" rx="0" fill="#7f8c8d" fill-opacity="0.5"/>
    <rect x="30" y="30" width="240" height="140" rx="0" fill="#95a5a6" fill-opacity="0.7"/>
    <circle cx="150" cy="100" r="50" fill="#e74c3c" fill-opacity="0.6"/>
    <circle cx="150" cy="100" r="40" fill="#c0392b" fill-opacity="0.8"/>
    <circle cx="150" cy="100" r="30" fill="#e67e22" fill-opacity="0.9"/>
    <circle cx="150" cy="100" r="20" fill="#f39c12" fill-opacity="1"/>
    <rect x="20" y="180" width="40" height="10" rx="2" fill="#ecf0f1"/>
    <rect x="70" y="180" width="40" height="10" rx="2" fill="#ecf0f1"/>
    <rect x="120" y="180" width="40" height="10" rx="2" fill="#ecf0f1"/>
    <rect x="170" y="180" width="40" height="10" rx="2" fill="#ecf0f1"/>
    <rect x="220" y="180" width="40" height="10" rx="2" fill="#ecf0f1"/>
    <path d="M30,10 L270,10" stroke="#ecf0f1" stroke-width="2" stroke-linecap="round"/>
  </g>
  <text x="300" y="375" font-family="Arial" font-size="24" text-anchor="middle" fill="#ffffff">Gas Range Installation</text>
</svg>