<svg xmlns="http://www.w3.org/2000/svg" viewBox="0 0 448 512" fill="#ffffff">
  <path d="M384 0H64C28.7 0 0 28.7 0 64v384c0 35.3 28.7 64 64 64h320c35.3 0 64-28.7 64-64V64c0-35.3-28.7-64-64-64zM64 48h320c8.8 0 16 7.2 16 16v48H48V64c0-8.8 7.2-16 16-16zm320 416H64c-8.8 0-16-7.2-16-16V160h352v288c0 8.8-7.2 16-16 16zM192 192h64c8.8 0 16 7.2 16 16v64c0 8.8-7.2 16-16 16h-64c-8.8 0-16-7.2-16-16v-64c0-8.8 7.2-16 16-16zm-64 64c0 8.8-7.2 16-16 16H96c-8.8 0-16-7.2-16-16v-16c0-8.8 7.2-16 16-16h16c8.8 0 16 7.2 16 16v16zm0 64c0 8.8-7.2 16-16 16H96c-8.8 0-16-7.2-16-16v-16c0-8.8 7.2-16 16-16h16c8.8 0 16 7.2 16 16v16zm192-64c0 8.8-7.2 16-16 16h-16c-8.8 0-16-7.2-16-16v-16c0-8.8 7.2-16 16-16h16c8.8 0 16 7.2 16 16v16zm0 64c0 8.8-7.2 16-16 16h-16c-8.8 0-16-7.2-16-16v-16c0-8.8 7.2-16 16-16h16c8.8 0 16 7.2 16 16v16z"/>
</svg>