<svg xmlns="http://www.w3.org/2000/svg" width="600" height="400" viewBox="0 0 600 400">
  <rect width="600" height="400" fill="#34495e"/>
  <g fill="#ffffff" fill-opacity="0.1">
    <circle cx="150" cy="200" r="70"/>
    <circle cx="450" cy="200" r="70"/>
    <rect x="100" y="100" width="400" height="200" rx="10"/>
  </g>
  <!-- Apartment complex -->
  <g transform="translate(50, 50)">
    <!-- Building structure -->
    <rect x="0" y="0" width="500" height="300" rx="0" fill="#7f8c8d" fill-opacity="0.8"/>
    <!-- Apartment units - first floor -->
    <rect x="20" y="200" width="100" height="80" rx="0" fill="#bdc3c7" fill-opacity="0.7"/>
    <rect x="140" y="200" width="100" height="80" rx="0" fill="#bdc3c7" fill-opacity="0.7"/>
    <rect x="260" y="200" width="100" height="80" rx="0" fill="#bdc3c7" fill-opacity="0.7"/>
    <rect x="380" y="200" width="100" height="80" rx="0" fill="#bdc3c7" fill-opacity="0.7"/>
    <!-- Apartment units - second floor -->
    <rect x="20" y="100" width="100" height="80" rx="0" fill="#bdc3c7" fill-opacity="0.7"/>
    <rect x="140" y="100" width="100" height="80" rx="0" fill="#bdc3c7" fill-opacity="0.7"/>
    <rect x="260" y="100" width="100" height="80" rx="0" fill="#bdc3c7" fill-opacity="0.7"/>
    <rect x="380" y="100" width="100" height="80" rx="0" fill="#bdc3c7" fill-opacity="0.7"/>
    <!-- Apartment units - third floor -->
    <rect x="20" y="0" width="100" height="80" rx="0" fill="#bdc3c7" fill-opacity="0.7"/>
    <rect x="140" y="0" width="100" height="80" rx="0" fill="#bdc3c7" fill-opacity="0.7"/>
    <rect x="260" y="0" width="100" height="80" rx="0" fill="#bdc3c7" fill-opacity="0.7"/>
    <rect x="380" y="0" width="100" height="80" rx="0" fill="#bdc3c7" fill-opacity="0.7"/>
    <!-- Windows -->
    <rect x="40" y="20" width="20" height="30" rx="0" fill="#3498db" fill-opacity="0.5"/>
    <rect x="80" y="20" width="20" height="30" rx="0" fill="#3498db" fill-opacity="0.5"/>
    <rect x="40" y="120" width="20" height="30" rx="0" fill="#3498db" fill-opacity="0.5"/>
    <rect x="80" y="120" width="20" height="30" rx="0" fill="#3498db" fill-opacity="0.5"/>
    <rect x="40" y="220" width="20" height="30" rx="0" fill="#3498db" fill-opacity="0.5"/>
    <rect x="80" y="220" width="20" height="30" rx="0" fill="#3498db" fill-opacity="0.5"/>
    
    <rect x="160" y="20" width="20" height="30" rx="0" fill="#3498db" fill-opacity="0.5"/>
    <rect x="200" y="20" width="20" height="30" rx="0" fill="#3498db" fill-opacity="0.5"/>
    <rect x="160" y="120" width="20" height="30" rx="0" fill="#3498db" fill-opacity="0.5"/>
    <rect x="200" y="120" width="20" height="30" rx="0" fill="#3498db" fill-opacity="0.5"/>
    <rect x="160" y="220" width="20" height="30" rx="0" fill="#3498db" fill-opacity="0.5"/>
    <rect x="200" y="220" width="20" height="30" rx="0" fill="#3498db" fill-opacity="0.5"/>
    
    <rect x="280" y="20" width="20" height="30" rx="0" fill="#3498db" fill-opacity="0.5"/>
    <rect x="320" y="20" width="20" height="30" rx="0" fill="#3498db" fill-opacity="0.5"/>
    <rect x="280" y="120" width="20" height="30" rx="0" fill="#3498db" fill-opacity="0.5"/>
    <rect x="320" y="120" width="20" height="30" rx="0" fill="#3498db" fill-opacity="0.5"/>
    <rect x="280" y="220" width="20" height="30" rx="0" fill="#3498db" fill-opacity="0.5"/>
    <rect x="320" y="220" width="20" height="30" rx="0" fill="#3498db" fill-opacity="0.5"/>
    
    <rect x="400" y="20" width="20" height="30" rx="0" fill="#3498db" fill-opacity="0.5"/>
    <rect x="440" y="20" width="20" height="30" rx="0" fill="#3498db" fill-opacity="0.5"/>
    <rect x="400" y="120" width="20" height="30" rx="0" fill="#3498db" fill-opacity="0.5"/>
    <rect x="440" y="120" width="20" height="30" rx="0" fill="#3498db" fill-opacity="0.5"/>
    <rect x="400" y="220" width="20" height="30" rx="0" fill="#3498db" fill-opacity="0.5"/>
    <rect x="440" y="220" width="20" height="30" rx="0" fill="#3498db" fill-opacity="0.5"/>
    
    <!-- AC units being installed -->
    <rect x="110" y="60" width="30" height="20" rx="2" fill="#ecf0f1" fill-opacity="0.9"/>
    <rect x="350" y="60" width="30" height="20" rx="2" fill="#ecf0f1" fill-opacity="0.9"/>
    <rect x="230" y="160" width="30" height="20" rx="2" fill="#ecf0f1" fill-opacity="0.9"/>
    <rect x="470" y="160" width="30" height="20" rx="2" fill="#ecf0f1" fill-opacity="0.9"/>
    <rect x="110" y="260" width="30" height="20" rx="2" fill="#ecf0f1" fill-opacity="0.9"/>
    <rect x="350" y="260" width="30" height="20" rx="2" fill="#ecf0f1" fill-opacity="0.9"/>
    
    <!-- Technicians -->
    <circle cx="125" cy="50" r="8" fill="#f39c12" fill-opacity="0.9"/>
    <circle cx="365" cy="50" r="8" fill="#f39c12" fill-opacity="0.9"/>
    <circle cx="245" cy="150" r="8" fill="#f39c12" fill-opacity="0.9"/>
    <circle cx="485" cy="150" r="8" fill="#f39c12" fill-opacity="0.9"/>
    <circle cx="125" cy="250" r="8" fill="#f39c12" fill-opacity="0.9"/>
    <circle cx="365" cy="250" r="8" fill="#f39c12" fill-opacity="0.9"/>
  </g>
  <text x="300" y="375" font-family="Arial" font-size="24" text-anchor="middle" fill="#ffffff">Multi-Unit Residential AC Installation</text>
</svg>